HIERARCHY
ROOT Hips
{
	OFFSET 0.00 0.00 0.00
	CHANNELS 6 Xposition Yposition Zposition Xrotation Yrotation Zrotation
	JOINT Spine
	{
		OFFSET 0.00000 7.06766 0.00000
		CHANNELS 3 Xrotation Yrotation Zrotation
		JOINT Head
		{
			OFFSET 0.00000 15.03989 0.00000
			CHANNELS 3 Xrotation Yrotation Zrotation
			End Site
			{
				OFFSET 0.00000 4.52755 0.00000
			}
		}
		JOINT LeftShoulder
		{
			OFFSET 0.00000 10.53037 0.00000
			CHANNELS 3 Xrotation Yrotation Zrotation
			JOINT LeftArm
			{
				OFFSET 7.02886 0.00000 0.00000
				CHANNELS 3 Xrotation Yrotation Zrotation
				JOINT LeftForeArm
				{
					OFFSET 10.79770 0.00000 0.00000
					CHANNELS 3 Yrotation Zrotation Xrotation
					JOINT LeftHand
					{
						OFFSET 7.90744 0.00000 0.00000
						CHANNELS 3 Xrotation Yrotation Zrotation
						JOINT LeftHandThumb1
						{
							OFFSET 0.00000 0.00000 0.00000
							CHANNELS 3 Xrotation Zrotation Yrotation
							End Site
							{
								OFFSET 0.00000 0.00000 3.93700
							}
						}
						End Site
						{
							OFFSET 3.93700 0.00000 0.00000
						}
					}
				}
			}
		}
		JOINT RightShoulder
		{
			OFFSET 0.00000 10.53037 0.00000
			CHANNELS 3 Xrotation Yrotation Zrotation
			JOINT RightArm
			{
				OFFSET -7.02886 0.00000 0.00000
				CHANNELS 3 Xrotation Yrotation Zrotation
				JOINT RightForeArm
				{
					OFFSET -10.79770 0.00000 0.00000
					CHANNELS 3 Yrotation Zrotation Xrotation
					JOINT RightHand
					{
						OFFSET -7.90744 0.00000 0.00000
						CHANNELS 3 Xrotation Yrotation Zrotation
						JOINT RightHandThumb1
						{
							OFFSET 0.00000 0.00000 0.00000
							CHANNELS 3 Xrotation Zrotation Yrotation
							End Site
							{
								OFFSET 0.00000 0.00000 3.93700
							}
						}
						End Site
						{
							OFFSET -3.93700 0.00000 0.00000
						}
					}
				}
			}
		}
	}
	JOINT LeftUpLeg
	{
		OFFSET 4.01300 0.00000 0.00000
		CHANNELS 3 Xrotation Yrotation Zrotation
		JOINT LeftLeg
		{
			OFFSET 0.00000 -16.89976 0.00000
			CHANNELS 3 Xrotation Yrotation Zrotation
			JOINT LeftFoot
			{
				OFFSET 0.00000 -17.38918 0.00000
				CHANNELS 3 Xrotation Yrotation Zrotation
				JOINT LeftToeBase
				{
					OFFSET 0.00000 -1.27456 4.75673
					CHANNELS 3 Xrotation Yrotation Zrotation
					End Site
					{
						OFFSET 0.00000 0.00000 2.95275
					}
				}
			}
		}
	}
	JOINT RightUpLeg
	{
		OFFSET -4.01300 0.00000 0.00000
		CHANNELS 3 Xrotation Yrotation Zrotation
		JOINT RightLeg
		{
			OFFSET 0.00000 -16.89976 0.00000
			CHANNELS 3 Xrotation Yrotation Zrotation
			JOINT RightFoot
			{
				OFFSET 0.00000 -17.38918 0.00000
				CHANNELS 3 Xrotation Yrotation Zrotation
				JOINT RightToeBase
				{
					OFFSET 0.00000 -1.27456 4.75673
					CHANNELS 3 Xrotation Yrotation Zrotation
					End Site
					{
						OFFSET 0.00000 0.00000 2.95275
					}
				}
			}
		}
	}
}
MOTION
Frames: 22
Frame Time: 0.008333
 19.4520 35.6498 -23.5620 176.6260 -8.1556 179.7118 -7.0923 -8.3854 -2.1037 6.1534 -9.4492 6.1538 -14.2206 11.7308 -5.6378 26.0264 -37.2501 -67.2839 -11.1493 -0.0000 8.4873 0.5570 2.9829 -10.5819 33.1476 -0.0000 26.2537 34.7573 -11.2189 -4.8754 34.6542 66.4940 51.8570 60.4387 -0.0000 64.8861 -2.6748 14.6038 10.4973 32.8623 0.0000 -24.3270 1.4573 6.3346 0.8440 -2.7987 -0.0000 -0.0000 -16.8738 26.5218 1.4180 25.6444 -0.0000 0.0000 3.7044 -12.9879 1.7913 -1.9046 -0.0000 -0.0000 -19.6125 -28.6909 -2.7791 23.3187 0.0000 -0.0000
 19.4452 35.6519 -23.5595 176.6631 -8.1740 179.7258 -7.0383 -8.4121 -2.1734 6.0987 -9.3584 6.3193 -14.2075 11.7271 -5.5233 25.8478 -37.2609 -67.4405 -11.0556 -0.0000 8.6027 0.5566 2.9885 -10.5553 33.1476 -0.0000 26.2537 34.7463 -11.6020 -5.2816 35.1967 65.9287 51.1740 60.8838 -0.0000 65.3339 -2.6772 14.4577 10.6081 32.8623 0.0000 -24.3270 1.4810 6.3241 0.8236 -2.7777 -0.0000 0.0000 -16.8645 26.5269 1.4029 25.6589 -0.0000 0.0000 3.7056 -12.9786 1.7637 -1.8471 0.0000 0.0000 -19.6313 -28.7146 -2.7762 23.3067 0.0000 -0.0000
 19.4389 35.6540 -23.5565 176.6847 -8.2120 179.7293 -7.0020 -8.4486 -2.2351 6.0471 -9.2774 6.4923 -14.2169 11.7117 -5.4035 25.6864 -37.2899 -67.6144 -10.9327 -0.0000 8.6847 0.5558 2.9990 -10.5036 33.1476 -0.0000 26.2537 34.7270 -12.0575 -5.7219 35.6755 65.4074 50.4961 61.3127 -0.0000 65.4807 -2.7495 14.5374 10.8313 32.8623 0.0000 -24.3270 1.4704 6.3649 0.8152 -2.7332 -0.0000 -0.0000 -16.8576 26.4582 1.3445 25.6718 0.0000 -0.0000 3.7078 -12.9735 1.7506 -1.8163 -0.0000 -0.0000 -19.6250 -28.7746 -2.7442 23.2776 0.0000 0.0000
 19.4337 35.6565 -23.5535 176.7306 -8.2413 179.7265 -6.9293 -8.5237 -2.2746 5.9904 -9.1579 6.6424 -14.2234 11.7684 -5.2791 25.5136 -37.4192 -67.7636 -10.7554 -0.0000 8.6920 0.5522 2.9908 -10.4658 33.1476 -0.0000 26.2537 34.6548 -12.5357 -6.2166 36.0339 64.8520 49.9280 61.7876 -0.0000 65.5214 -2.7493 14.5059 10.8530 32.8623 0.0000 -24.3270 1.4891 6.4133 0.8157 -2.6995 0.0000 -0.0000 -16.8528 26.4072 1.2927 25.7034 -0.0000 -0.0000 3.7676 -12.9091 1.7632 -1.8614 0.0000 -0.0000 -19.6002 -28.9333 -2.7283 23.3092 -0.0000 0.0000
 19.4248 35.6589 -23.5511 176.7774 -8.2827 179.7508 -6.8615 -8.6278 -2.3463 5.9281 -8.9977 6.8099 -14.2030 11.8113 -5.1598 25.2922 -37.4133 -67.9323 -10.6325 -0.0000 8.9563 0.5601 3.0003 -10.5792 33.1476 -0.0000 26.2537 34.5599 -13.0193 -6.7417 36.3127 64.3189 49.4254 62.2271 -0.0000 65.4112 -2.6590 14.0356 10.8405 32.8623 0.0000 -24.3270 1.5288 6.4226 0.7812 -2.6964 -0.0000 0.0000 -16.8040 26.3859 1.2135 25.6249 -0.0000 0.0000 3.7730 -12.9846 1.7275 -1.7932 -0.0000 -0.0000 -19.6760 -28.8888 -2.8325 23.5282 0.0000 -0.0000
 19.4146 35.6620 -23.5473 176.8069 -8.2677 179.7588 -6.8075 -8.6687 -2.3750 5.8499 -8.8378 6.9475 -14.1952 11.8369 -5.0716 25.0964 -37.3973 -68.1116 -10.4915 -0.0000 9.0643 0.5597 3.0108 -10.5366 33.1476 -0.0000 26.2537 34.3986 -13.5270 -7.3152 36.5300 63.6924 49.0350 62.7898 -0.0000 65.2878 -2.6318 13.7905 10.9145 32.8623 0.0000 -24.3270 1.5658 6.4972 0.7561 -2.7161 0.0000 -0.0000 -16.7616 26.3564 1.1660 25.6283 0.0000 0.0000 3.7607 -12.9039 1.6936 -1.7200 0.0000 0.0000 -19.6143 -28.9452 -2.6925 23.2025 0.0000 -0.0000
 19.4099 35.6651 -23.5455 176.8435 -8.3055 179.7777 -6.7652 -8.7704 -2.4450 5.8139 -8.6642 7.0977 -14.1806 11.8649 -4.9497 24.9063 -37.4430 -68.2993 -10.3177 -0.0000 8.9428 0.5617 3.0758 -10.3543 33.1476 -0.0000 26.2537 34.2715 -13.9904 -7.8973 36.4374 62.9438 48.9847 63.4018 -0.0000 65.1641 -2.6239 13.7985 10.8766 32.8623 0.0000 -24.3270 1.5949 6.4999 0.7318 -2.7138 -0.0000 0.0000 -16.7038 26.3530 1.0627 25.5983 0.0000 -0.0000 3.7872 -12.9227 1.6805 -1.7195 -0.0000 -0.0000 -19.6170 -29.0396 -2.6636 23.2613 0.0000 -0.0000
 19.4044 35.6682 -23.5430 176.8818 -8.3349 179.7986 -6.7135 -8.8573 -2.5184 5.7477 -8.4823 7.2954 -14.1706 11.9064 -4.8260 24.6842 -37.4346 -68.4911 -10.1588 -0.0000 9.0351 0.5574 3.0771 -10.2726 33.1476 -0.0000 26.2537 34.1427 -14.5570 -8.4704 36.3842 62.2979 48.7781 64.0222 -0.0000 64.9049 -2.6463 13.8480 10.9298 32.8623 0.0000 -24.3270 1.6355 6.4798 0.7054 -2.7271 -0.0000 -0.0000 -16.6394 26.3796 0.9860 25.5249 0.0000 -0.0000 3.8166 -12.8852 1.6505 -1.7021 -0.0000 -0.0000 -19.6828 -29.0182 -2.8435 23.5281 -0.0000 0.0000
 19.4000 35.6724 -23.5399 176.9108 -8.3822 179.8137 -6.6622 -8.9621 -2.5879 5.6755 -8.3224 7.4910 -14.1429 11.9638 -4.7232 24.4432 -37.3459 -68.6493 -10.0516 -0.0000 9.3571 0.5603 3.0717 -10.3426 33.1476 -0.0000 26.2537 33.9984 -15.0620 -9.0490 36.1562 61.4266 48.8302 64.8543 0.0000 64.8488 -2.6404 13.6604 11.0493 32.8623 0.0000 -24.3270 1.6653 6.4353 0.6855 -2.7434 -0.0000 -0.0000 -16.5758 26.4071 0.8916 25.4916 0.0000 -0.0000 3.8406 -12.8600 1.6332 -1.6964 -0.0000 -0.0000 -19.6551 -29.0845 -2.7998 23.4939 -0.0000 0.0000
 19.3943 35.6766 -23.5365 176.9475 -8.4305 179.8384 -6.6008 -9.0989 -2.6616 5.5945 -8.1264 7.6905 -14.0886 12.0543 -4.6251 24.1895 -37.2868 -68.8032 -9.9453 -0.0000 9.4964 0.5551 3.0720 -10.2480 33.1476 -0.0000 26.2537 33.7394 -15.5352 -9.6397 36.0694 60.5265 48.8132 65.7931 0.0000 64.9023 -2.6564 13.6124 11.1519 32.8623 0.0000 -24.3270 1.6999 6.4317 0.6539 -2.7560 0.0000 0.0000 -16.4988 26.4095 0.7915 25.4692 0.0000 -0.0000 3.8694 -12.8345 1.6069 -1.6930 0.0000 -0.0000 -19.6456 -29.1790 -2.7734 23.4496 -0.0000 -0.0000
 19.3889 35.6805 -23.5313 176.9734 -8.4969 179.8581 -6.5412 -9.2691 -2.7431 5.5119 -7.9472 7.9162 -14.0858 12.1581 -4.4975 23.9573 -37.1775 -68.9901 -9.8604 -0.0000 9.6839 0.5546 3.1084 -10.1209 33.1476 -0.0000 26.2537 33.5679 -16.0885 -10.1902 36.0923 59.7805 48.4902 66.8014 0.0000 64.9229 -2.6801 13.4840 11.3514 32.8623 0.0000 -24.3270 1.7110 6.4432 0.6276 -2.7583 -0.0000 0.0000 -16.4280 26.3708 0.6843 25.4603 -0.0000 0.0000 3.9046 -12.7655 1.5854 -1.7217 0.0000 0.0000 -19.6146 -29.3072 -2.7615 23.4130 -0.0000 0.0000
 19.3848 35.6842 -23.5278 176.9832 -8.6093 179.8785 -6.5284 -9.5027 -2.8230 5.4750 -7.7499 8.0854 -14.0329 12.2600 -4.3968 23.7315 -37.0328 -69.1568 -9.8080 0.0000 9.8502 0.5501 3.1285 -9.9776 33.1476 -0.0000 26.2537 33.3973 -16.5559 -10.7478 35.8559 58.7421 48.4674 68.0470 0.0000 65.3676 -2.8231 13.6945 11.7662 32.8623 0.0000 -24.3270 1.7017 6.3769 0.6051 -2.7509 -0.0000 -0.0000 -16.3563 26.3488 0.5751 25.4363 0.0000 -0.0000 3.9193 -12.8164 1.5749 -1.7398 0.0000 -0.0000 -19.6204 -29.4375 -2.7407 23.4677 -0.0000 0.0000
 19.3763 35.6879 -23.5222 177.0106 -8.6425 179.9057 -6.4874 -9.6859 -2.8843 5.4316 -7.5246 8.2525 -14.0093 12.3731 -4.3088 23.5239 -36.8496 -69.3298 -9.7587 0.0000 10.0257 0.5424 3.1328 -9.8278 33.1476 -0.0000 26.2537 33.2719 -17.0343 -11.2950 35.8569 57.8572 48.1316 69.3855 0.0000 65.5528 -2.8396 13.5299 11.9702 32.8623 0.0000 -24.3270 1.7247 6.3990 0.5641 -2.7611 0.0000 0.0000 -16.2852 26.3284 0.4886 25.4212 -0.0000 0.0000 3.9181 -12.7473 1.5254 -1.6971 -0.0000 -0.0000 -19.5658 -29.4765 -2.6645 23.2330 -0.0000 0.0000
 19.3722 35.6924 -23.5160 177.0220 -8.7499 179.9287 -6.4942 -9.9362 -2.9650 5.4714 -7.2953 8.3988 -13.9528 12.4408 -4.2289 23.3278 -36.6376 -69.4911 -9.7065 0.0000 10.1569 0.5324 3.1234 -9.6777 33.1476 -0.0000 26.2537 33.0910 -17.4495 -11.8396 35.8779 56.8975 47.8551 70.8871 0.0000 65.6139 -2.9445 13.4016 12.5127 32.8623 0.0000 -24.3270 1.7056 6.3125 0.5393 -2.7398 -0.0000 -0.0000 -16.2211 26.3400 0.3863 25.3432 0.0000 -0.0000 3.9183 -12.7734 1.5018 -1.6746 0.0000 0.0000 -19.5832 -29.5678 -2.6867 23.2719 0.0000 0.0000
 19.3662 35.6963 -23.5142 177.0418 -8.8267 179.9564 -6.4747 -10.1519 -3.0295 5.4208 -7.0846 8.5056 -13.9500 12.5266 -4.1456 23.2028 -36.4255 -69.6363 -9.6989 0.0000 10.3318 0.5358 3.1826 -9.5614 33.1476 -0.0000 26.2537 32.9931 -17.8964 -12.3528 35.9139 56.0012 47.4708 72.4482 0.0000 65.5577 -2.9706 13.0256 12.9659 32.8623 0.0000 -24.3270 1.7227 6.2703 0.5050 -2.7503 -0.0000 0.0000 -16.1251 26.3471 0.2409 25.2471 -0.0000 -0.0000 3.9338 -12.8191 1.4711 -1.6709 -0.0000 0.0000 -19.5402 -29.6073 -2.5736 23.1224 -0.0000 0.0000
 19.3622 35.7001 -23.5089 177.0102 -8.8843 179.9667 -6.5231 -10.3470 -3.0751 5.3931 -6.8577 8.5820 -13.9633 12.5813 -4.0628 23.1415 -36.2445 -69.7947 -9.6813 0.0000 10.2871 0.5353 3.2564 -9.3411 33.1476 -0.0000 26.2537 32.8176 -18.3262 -12.8952 36.0523 55.1315 47.0495 73.9295 0.0000 65.6700 -2.9312 12.9109 12.9075 32.8623 0.0000 -24.3270 1.6800 6.2266 0.4844 -2.7525 -0.0000 -0.0000 -16.0659 26.3432 0.1690 25.2647 0.0000 -0.0000 3.8803 -12.8366 1.4490 -1.6378 0.0000 -0.0000 -19.5092 -29.6928 -2.4808 22.9656 -0.0000 0.0000
 19.3601 35.7045 -23.5019 176.9693 -8.9579 179.9796 -6.6118 -10.5642 -3.1395 5.4557 -6.6103 8.6595 -13.9271 12.5999 -3.9942 23.0370 -35.9878 -69.9479 -9.6464 0.0000 10.4050 0.5400 3.3054 -9.2833 33.1476 -0.0000 26.2537 32.7466 -18.7085 -13.4240 36.1137 54.2898 46.6012 75.5079 0.0000 65.2749 -3.0051 12.8136 13.3173 32.8623 0.0000 -24.3270 1.6176 6.1409 0.4644 -2.7436 -0.0000 -0.0000 -15.9946 26.3767 0.0625 25.2505 -0.0000 -0.0000 3.8214 -12.8734 1.4279 -1.6149 -0.0000 -0.0000 -19.5809 -29.7018 -2.6046 23.2514 0.0000 -0.0000
 19.3525 35.7080 -23.4980 176.9879 -8.9617 179.9967 -6.6058 -10.7505 -3.1545 5.4272 -6.3291 8.6762 -13.9268 12.6730 -3.9455 22.9569 -35.7853 -70.0869 -9.5841 0.0000 10.4735 0.5394 3.3121 -9.2551 33.1476 -0.0000 26.2537 32.5471 -18.9748 -13.9896 36.2899 53.3748 46.1647 77.1388 0.0000 64.9616 -3.1124 12.8830 13.7056 32.8623 0.0000 -24.3270 1.6466 6.1313 0.4347 -2.7667 0.0000 0.0000 -15.9197 26.3995 -0.0147 25.1296 0.0000 -0.0000 3.8070 -12.8605 1.3951 -1.5698 -0.0000 -0.0000 -19.5863 -29.7232 -2.6157 23.3163 -0.0000 0.0000
 19.3486 35.7123 -23.4923 176.9509 -9.0165 179.9963 -6.6740 -11.0008 -3.1790 5.4271 -6.0567 8.7020 -13.9361 12.7531 -3.8851 22.9223 -35.6023 -70.2096 -9.5003 0.0000 10.5052 0.5305 3.2711 -9.2171 33.1476 -0.0000 26.2537 32.4693 -19.2557 -14.5099 36.4118 52.5317 45.6461 78.7113 0.0000 64.3607 -3.2061 12.9841 13.9993 32.8623 0.0000 -24.3270 1.5965 6.0871 0.4249 -2.7670 -0.0000 -0.0000 -15.8647 26.4007 -0.0868 25.1599 0.0000 -0.0000 3.7519 -12.9251 1.3904 -1.5611 -0.0000 0.0000 -19.4982 -29.8195 -2.4102 23.1218 -0.0000 0.0000
 19.3429 35.7164 -23.4840 176.9342 -9.0387 -179.9948 -6.7218 -11.2663 -3.1913 5.4478 -5.7385 8.6800 -13.9041 12.8590 -3.8448 22.8497 -35.4415 -70.3210 -9.3865 0.0000 10.4231 0.5244 3.2598 -9.1441 33.1476 -0.0000 26.2537 32.2498 -19.3897 -15.1348 36.6456 51.6580 45.1903 80.3665 0.0000 63.9606 -3.1337 12.6509 14.0353 32.8623 0.0000 -24.3270 1.5696 6.1132 0.4020 -2.7761 0.0000 0.0000 -15.7879 26.3760 -0.1911 25.1297 0.0000 -0.0000 3.6960 -12.9194 1.3562 -1.4975 0.0000 0.0000 -19.5255 -29.7925 -2.4681 23.2823 -0.0000 0.0000
 19.3359 35.7224 -23.4746 176.8949 -9.1009 -179.9327 -6.7907 -11.5138 -3.2991 5.4217 -5.4868 8.7313 -13.9147 12.9570 -3.7746 22.8146 -35.3629 -70.4100 -9.2481 0.0000 10.3714 0.5245 3.2974 -9.0434 33.1476 -0.0000 26.2537 32.0770 -19.5398 -15.6134 36.9827 50.8158 44.5533 82.0078 0.0000 63.5399 -3.1708 12.7105 14.1323 32.8623 0.0000 -24.3270 1.5004 6.2423 0.3253 -2.7495 0.0000 -0.0000 -15.6307 26.2223 -0.4467 24.9615 0.0000 0.0000 3.6114 -12.9933 1.2808 -1.4732 0.0000 0.0000 -19.5476 -29.8587 -2.4823 23.3088 -0.0000 0.0000
 19.3308 35.7271 -23.4673 176.8691 -9.1518 -179.8893 -6.8482 -11.7185 -3.3785 5.4077 -5.2828 8.7634 -13.8683 13.0249 -3.7121 22.7090 -35.2704 -70.5143 -9.1118 0.0000 10.3163 0.5209 3.2811 -9.0258 33.1476 -0.0000 26.2537 32.0128 -19.7627 -16.0654 37.2287 50.0838 43.8315 83.6226 0.0000 62.8181 -3.0621 12.3326 14.0611 32.8623 0.0000 -24.3270 1.4542 6.3183 0.2711 -2.7381 0.0000 0.0000 -15.5091 26.1217 -0.6311 25.0003 0.0000 -0.0000 3.5600 -13.0418 1.2184 -1.4448 -0.0000 -0.0000 -19.5329 -29.8209 -2.4756 23.2161 0.0000 -0.0000
